<svg xmlns="http://www.w3.org/2000/svg" xmlns:xlink="http://www.w3.org/1999/xlink" width="70.217" height="70.999" viewBox="0 0 70.217 70.999">
  <defs>
    <clipPath id="clip-path">
      <circle id="Elipse_62" data-name="Elipse 62" cx="35" cy="35" r="35" fill="none" stroke="#011626" stroke-width="5"/>
    </clipPath>
  </defs>
  <g id="Grupo_219" data-name="Grupo 219" transform="translate(-12858.783 -17855)">
    <g id="Trazado_26" data-name="Trazado 26" transform="translate(12858.783 17856.418)" fill="none">
      <path d="M34.791,0A34.791,34.791,0,1,1,0,34.791,34.791,34.791,0,0,1,34.791,0Z" stroke="none"/>
      <path d="M 34.79052734375 3 C 30.49751663208008 3 26.33450317382813 3.840118408203125 22.41714096069336 5.497024536132813 C 18.63190460205078 7.098045349121094 15.23178482055664 9.390678405761719 12.31123352050781 12.31123352050781 C 9.390678405761719 15.23178482055664 7.098045349121094 18.63190460205078 5.497024536132813 22.41714096069336 C 3.840118408203125 26.33450317382813 3 30.49751663208008 3 34.79052734375 C 3 39.08354187011719 3.840118408203125 43.24655151367188 5.497024536132813 47.16391754150391 C 7.098045349121094 50.94915008544922 9.390678405761719 54.34926986694336 12.31123352050781 57.26982116699219 C 15.23178482055664 60.19037628173828 18.63190460205078 62.48300933837891 22.41714096069336 64.08403015136719 C 26.33450317382813 65.74093627929688 30.49751663208008 66.5810546875 34.79052734375 66.5810546875 C 39.08354187011719 66.5810546875 43.24655151367188 65.74093627929688 47.16391754150391 64.08403015136719 C 50.94915008544922 62.48300933837891 54.34926986694336 60.19037628173828 57.26982116699219 57.26982116699219 C 60.19037628173828 54.34926986694336 62.48300933837891 50.94915008544922 64.08403015136719 47.16391754150391 C 65.74093627929688 43.24655151367188 66.5810546875 39.08354187011719 66.5810546875 34.79052734375 C 66.5810546875 30.49751663208008 65.74093627929688 26.33450317382813 64.08403015136719 22.41714096069336 C 62.48300933837891 18.63190460205078 60.19037628173828 15.23178482055664 57.26982116699219 12.31123352050781 C 54.34926986694336 9.390678405761719 50.94915008544922 7.098045349121094 47.16391754150391 5.497024536132813 C 43.24655151367188 3.840118408203125 39.08354187011719 3 34.79052734375 3 M 34.79052734375 0 C 54.00479888916016 0 69.5810546875 15.57625579833984 69.5810546875 34.79052734375 C 69.5810546875 54.00479888916016 54.00479888916016 69.5810546875 34.79052734375 69.5810546875 C 15.57625579833984 69.5810546875 0 54.00479888916016 0 34.79052734375 C 0 15.57625579833984 15.57625579833984 0 34.79052734375 0 Z" stroke="none" fill="#011626"/>
    </g>
    <g id="Elipse_63" data-name="Elipse 63" transform="translate(12876.074 17865)" fill="#011626" stroke="#011626" stroke-width="5">
      <circle cx="17.5" cy="17.5" r="17.5" stroke="none"/>
      <circle cx="17.5" cy="17.5" r="15" fill="none"/>
    </g>
    <g id="Enmascarar_grupo_1" data-name="Enmascarar grupo 1" transform="translate(12859 17855)" clip-path="url(#clip-path)">
      <g id="Elipse_64" data-name="Elipse 64" transform="translate(7.221 42.555)" fill="#011626" stroke="#011626" stroke-width="5">
        <ellipse cx="27.779" cy="27.444" rx="27.779" ry="27.444" stroke="none"/>
        <ellipse cx="27.779" cy="27.444" rx="25.279" ry="24.944" fill="none"/>
      </g>
    </g>
  </g>
</svg>
