<svg xmlns="http://www.w3.org/2000/svg" width="218" height="236" viewBox="0 0 218 236">
  <g id="Group_196" data-name="Group 196" transform="translate(-447 -442)">
    <text id="CHEERS_" data-name="CHEERS!" transform="translate(447 626)" fill="#011626" font-size="30" font-family="DelaGothicOne-Regular, Dela Gothic One"><tspan x="23.335" y="35">CHEERS!</tspan></text>
    <g id="beer" transform="translate(463 383.843)">
      <path id="Path_8" data-name="Path 8" d="M95.942,269.605a7.057,7.057,0,0,1-2.564-.32L69.34,261.592c-1.923-.641-6.09-2.885-4.167-9.295l12.179-38.141,36.859,11.859-12.179,37.82A7.126,7.126,0,0,1,95.942,269.605Z" transform="translate(-38.766 -93.501)" fill="#fd9f27"/>
      <rect id="Rectangle_154" data-name="Rectangle 154" width="13.782" height="38.783" transform="translate(79.855 119.536) rotate(107.83)" fill="#fd9f27"/>
      <path id="Path_9" data-name="Path 9" d="M106.934,235.757,95.075,272.936a6.519,6.519,0,0,1-6.41,5.449,7.057,7.057,0,0,1-2.564-.32l-16.987-5.449A15.051,15.051,0,0,0,72,274.539l24.038,7.692a6.248,6.248,0,0,0,2.564.32,7.2,7.2,0,0,0,6.41-5.449l12.179-37.82Z" transform="translate(-41.424 -106.447)" fill="#fd9f27"/>
      <path id="Path_10" data-name="Path 10" d="M127.4,203.757l-3.846,12.179-26.923-8.654-.321.641,37.179,11.859,4.167-12.82Z" transform="translate(-57.727 -87.267)" fill="#fd9f27"/>
      <path id="Path_11" data-name="Path 11" d="M77.3,263.579a5.455,5.455,0,0,1-2.244-.32L23.78,246.592a7.442,7.442,0,0,1-4.808-9.295,7.545,7.545,0,0,1,6.731-5.128l18.59-58.012,9.615,3.205L37.562,228c-1.923,6.41,2.244,8.654,4.167,9.295l24.038,7.692a6.248,6.248,0,0,0,2.564.321,7.2,7.2,0,0,0,6.41-5.449L91.087,188.9l9.615,3.205-18.91,58.012a7.146,7.146,0,0,1,2.564,8.013A7.5,7.5,0,0,1,77.3,263.579Z" transform="translate(-11.154 -69.526)" fill="#fff"/>
      <path id="Path_12" data-name="Path 12" d="M145.283,265.923l-5.769,17.307,8.013,2.564a5.455,5.455,0,0,0,2.244.32,7.312,7.312,0,0,0,4.487-13.141l18.59-58.012-9.615-3.205-16.346,50.961A7.547,7.547,0,0,1,145.283,265.923Z" transform="translate(-83.62 -92.062)" fill="#f7eeba"/>
      <path id="Path_13" data-name="Path 13" d="M137.972,166.168a8.873,8.873,0,0,1-2.885-.321l-40.064-12.82A11.389,11.389,0,0,1,89.9,149.5a7.125,7.125,0,0,1-.962-5.128,6.677,6.677,0,0,1,6.731-4.167,11.388,11.388,0,0,1,3.205.641h.321a11.226,11.226,0,0,1,11.218-6.731,13.287,13.287,0,0,1,5.128.962,15.969,15.969,0,0,1,9.615,8.013c.641,0,1.282-.321,1.923,0a16.087,16.087,0,0,1,3.846.641,10.6,10.6,0,0,1,6.09,4.487,7.432,7.432,0,0,1,1.282,5.769v0l.321.321a8.4,8.4,0,0,1,5.128,4.167,4.124,4.124,0,0,1,.32,3.846,6.286,6.286,0,0,1-6.09,3.846Z" transform="translate(-53.232 -45.511)" fill="#fff"/>
      <path id="Path_14" data-name="Path 14" d="M167.416,158.036a9.388,9.388,0,0,0-5.128-4.167l-.321-.321h0v-.321a6.344,6.344,0,0,0-1.282-5.769,14.433,14.433,0,0,0-6.09-4.487,16.087,16.087,0,0,0-3.846-.641h-1.923a14.982,14.982,0,0,0-9.615-8.013,14.517,14.517,0,0,0-5.128-.962,12.571,12.571,0,0,0-5.769,1.282c.641,0,.962.321,1.6.321a15.969,15.969,0,0,1,9.615,8.013c.641,0,1.282-.321,1.923,0a16.087,16.087,0,0,1,3.846.641,10.6,10.6,0,0,1,6.09,4.487,7.432,7.432,0,0,1,1.282,5.769v.641l.321.321A8.4,8.4,0,0,1,158.121,159a4.124,4.124,0,0,1,.321,3.846c-.321.641-.641,1.6-1.282,1.923l1.6.641a8.874,8.874,0,0,0,2.885.32,5.865,5.865,0,0,0,6.09-3.846A5.36,5.36,0,0,0,167.416,158.036Z" transform="translate(-76.907 -45.072)" fill="#fff"/>
      <path id="Path_15" data-name="Path 15" d="M264.991,263.1a7.312,7.312,0,0,1-4.487-13.141l-18.59-58.012,9.615-3.205L267.875,239.7a6.519,6.519,0,0,0,6.41,5.449,7.057,7.057,0,0,0,2.564-.32l24.038-7.692c1.923-.641,6.09-2.885,4.167-9.295l-12.5-37.5-.32-.321v-.962l-4.167-12.5,9.615-3.205,18.91,58.333a7.076,7.076,0,0,1,7.051,7.692,6.92,6.92,0,0,1-5.128,6.731l-51.281,16.666A5.455,5.455,0,0,1,264.991,263.1Z" transform="translate(-144.994 -69.047)" fill="#f3f3f3"/>
      <path id="Path_16" data-name="Path 16" d="M392.849,237.3a7.216,7.216,0,0,0-6.731-5.128l-18.59-58.012-9.615,3.205,4.167,12.5v.962l.32.321,11.859,37.179a11.387,11.387,0,0,1,.641,3.205l5.449,17.628,8.013-2.564A7.269,7.269,0,0,0,392.849,237.3Z" transform="translate(-214.521 -69.526)" fill="#f3f3f3"/>
      <rect id="Rectangle_155" data-name="Rectangle 155" width="38.782" height="13.782" transform="translate(147.451 120.776) rotate(162.158)" fill="#fd9f27"/>
      <path id="Path_17" data-name="Path 17" d="M333.914,185.362l4.167,12.82,9.615-3.205-4.167-12.82Z" transform="translate(-200.136 -74.321)" fill="#fd9f27"/>
      <path id="Path_18" data-name="Path 18" d="M243.689,165.688a5.865,5.865,0,0,1-6.09-3.846,5.36,5.36,0,0,1,.32-3.846,8.4,8.4,0,0,1,5.128-4.167h.641v-.32a6.7,6.7,0,0,1,.962-6.09,14.433,14.433,0,0,1,6.09-4.487,16.087,16.087,0,0,1,3.846-.641h1.923a14.982,14.982,0,0,1,9.615-8.013,14.516,14.516,0,0,1,5.128-.962,11.279,11.279,0,0,1,10.9,6.41h.641a11.388,11.388,0,0,1,3.205-.641,6.289,6.289,0,0,1,6.731,4.167,5.145,5.145,0,0,1-.962,5.128,7.968,7.968,0,0,1-5.128,3.526l-40.064,12.82a5.17,5.17,0,0,1-2.885.962Z" transform="translate(-142.282 -45.032)" fill="#fff"/>
      <path id="Path_19" data-name="Path 19" d="M301.672,144.052c-1.282-2.564-3.846-4.487-6.731-4.167a11.387,11.387,0,0,0-3.205.641H291.1a11.279,11.279,0,0,0-10.9-6.41,13.287,13.287,0,0,0-5.128.962,15.969,15.969,0,0,0-9.615,8.013c-.641,0-1.282-.321-1.923,0a16.087,16.087,0,0,0-3.846.641,10.6,10.6,0,0,0-6.09,4.487,6.768,6.768,0,0,0-1.282,3.205c.641-.321.962-.321,1.6-.641a16.087,16.087,0,0,1,3.846-.641h1.923a14.982,14.982,0,0,1,9.615-8.013,14.516,14.516,0,0,1,5.128-.962,11.279,11.279,0,0,1,10.9,6.41h.641a11.387,11.387,0,0,1,3.205-.641A6.289,6.289,0,0,1,295.9,151.1c0,.641.32.962.32,1.6a8.29,8.29,0,0,0,4.487-3.526A5.021,5.021,0,0,0,301.672,144.052Z" transform="translate(-151.228 -45.511)" fill="#fff"/>
      <path id="Path_20" data-name="Path 20" d="M294.1,269.605a7.2,7.2,0,0,1-6.41-5.449l-12.179-37.82,37.179-12.179,12.179,37.82c2.244,6.41-2.244,8.654-4.167,9.295l-24.038,7.692A7.544,7.544,0,0,1,294.1,269.605Z" transform="translate(-165.133 -93.501)" fill="#fd9f27"/>
      <path id="Path_21" data-name="Path 21" d="M366.109,251.977l-12.179-37.82-9.615,3.205,12.179,37.82c1.923,6.09-1.6,8.333-3.526,8.974l8.974-2.885C363.865,260.631,368.032,258.708,366.109,251.977Z" transform="translate(-206.369 -93.501)" fill="#fd9f27"/>
      <g id="Group_161" data-name="Group 161" transform="translate(0 58.157)">
        <path id="Path_22" data-name="Path 22" d="M179.29,157.522a14.54,14.54,0,0,0-6.41-8.654,9.181,9.181,0,0,0-7.692-.321l-7.051,2.244-1.923-6.41a2.4,2.4,0,0,0-2.244-1.923,9.547,9.547,0,0,0-.32-4.167,10.058,10.058,0,0,0-11.859-6.09,14.328,14.328,0,0,0-12.82-6.09,22.208,22.208,0,0,0-6.41.962,18.221,18.221,0,0,0-10.256,8.013,24.74,24.74,0,0,0-4.808.641,14.84,14.84,0,0,0-7.692,5.449,11.557,11.557,0,0,0-1.923,6.41,10.126,10.126,0,0,0-4.487,4.487,9.424,9.424,0,0,0-4.808-4.487,11.557,11.557,0,0,0-1.923-6.41,14.84,14.84,0,0,0-7.692-5.449,24.74,24.74,0,0,0-4.808-.641,18.746,18.746,0,0,0-10.256-7.692,20.665,20.665,0,0,0-6.41-.962,14.678,14.678,0,0,0-12.82,6.09,5.236,5.236,0,0,0-2.244,0,10,10,0,0,0-9.936,6.41,8.875,8.875,0,0,0-.321,4.167,3.389,3.389,0,0,0-2.244,1.923l-1.923,6.41-7.051-2.244a10.643,10.643,0,0,0-7.692.321,14.54,14.54,0,0,0-6.41,8.654l-6.09,18.59a12.354,12.354,0,0,0-.641,6.09,9.246,9.246,0,0,0,7.051,8.974l7.051,2.244-2.244,6.41a10.331,10.331,0,0,0-7.372,12.82,10.828,10.828,0,0,0,7.051,7.372l51.281,16.666a11.388,11.388,0,0,0,3.205.641,10.671,10.671,0,0,0,10.577-10.577,10.343,10.343,0,0,0-2.564-6.731l17.948-56.089a3.405,3.405,0,0,0-.321-2.564c.321-.321.641-.962.962-1.282.321.321.641.962.962,1.282a2.419,2.419,0,0,0-.321,2.564l18.269,56.089a10.278,10.278,0,0,0,1.282,14.743c2.885,2.244,6.731,3.205,9.936,1.923l51.281-16.666a10.736,10.736,0,0,0,7.051-13.141,10.248,10.248,0,0,0-7.372-7.051l-2.244-6.41,7.051-2.244a10.387,10.387,0,0,0,7.051-8.974,24.4,24.4,0,0,0-.962-6.731ZM9.1,185.726a3.121,3.121,0,0,1-2.564-3.205,10.909,10.909,0,0,1,.641-4.487l5.769-18.59a8.087,8.087,0,0,1,3.205-4.808,4.447,4.447,0,0,1,2.885,0l7.051,2.244L16.151,187.97Zm58.333,34.935a3.617,3.617,0,0,0,.962,3.526,4.711,4.711,0,0,1,1.6,4.487,3.827,3.827,0,0,1-5.128,2.564L13.587,214.572a4.07,4.07,0,0,1,.962-8.013,3.079,3.079,0,0,0,2.885-2.244l17.948-55.128,3.526,1.282L35.7,160.406h0l-12.179,37.82a9.736,9.736,0,0,0,4.808,12.82c.641.321.962.321,1.6.641l24.038,7.692a11.522,11.522,0,0,0,3.526.641,9.914,9.914,0,0,0,9.295-7.692l12.179-37.82h0l3.205-9.936,3.526.962ZM71.6,175.47,60.382,210.085c-.321.962-1.282,3.205-3.205,3.205a2.89,2.89,0,0,1-1.6-.32l-24.038-7.692c-2.244-.641-2.885-2.244-1.923-5.128l11.218-34.935ZM42.754,159.445,45,152.394l21.795,7.051,8.974,2.885-2.244,7.051Zm40.064-1.6-40.064-12.82a8.3,8.3,0,0,1-3.526-2.244,3.051,3.051,0,0,1-.641-2.244,4.021,4.021,0,0,1,3.526-1.923,5.454,5.454,0,0,1,2.244.321H45a3.334,3.334,0,0,0,4.167-1.923v-.321a7.946,7.946,0,0,1,8.013-4.487,16.239,16.239,0,0,1,4.167.641,11.32,11.32,0,0,1,7.372,6.41,3.229,3.229,0,0,0,3.526,1.923,9.227,9.227,0,0,1,4.167.321,8.992,8.992,0,0,1,4.487,3.205,5.415,5.415,0,0,1,.962,3.205l-.321.321a3.18,3.18,0,0,0,1.6,4.167h.641c2.564.641,3.846,2.564,3.526,3.846S85.061,158.483,82.817,157.842ZM98.2,156.56c-.321-1.282.962-3.205,3.526-3.846h.321a3.042,3.042,0,0,0,2.244-3.846v-.641h0a3.947,3.947,0,0,1,.641-3.205,7.8,7.8,0,0,1,4.487-3.205,9.227,9.227,0,0,1,4.167-.321,3.229,3.229,0,0,0,3.526-1.923,12.1,12.1,0,0,1,7.372-6.41,18.759,18.759,0,0,1,4.167-.641,8.26,8.26,0,0,1,8.013,4.167,3.283,3.283,0,0,0,1.6,1.923,3.511,3.511,0,0,0,2.564,0l.321-.321c2.564-.962,5.449,0,5.769,1.6a1.982,1.982,0,0,1-.641,2.244,5.255,5.255,0,0,1-3.526,2.244L102.689,157.2A3.046,3.046,0,0,1,98.2,156.56Zm47.115,8.974,11.218,34.615c.962,2.885.321,4.487-1.923,5.128l-24.038,8.013a13.88,13.88,0,0,1-1.6.321h0c-1.923,0-2.885-2.244-3.205-3.205L114.548,175.47Zm-32.692,3.846-2.244-7.051,8.974-2.885,21.795-7.051,2.244,7.051Zm62.5,40.064a4.755,4.755,0,0,1-2.564,5.449l-51.281,16.666A4.755,4.755,0,0,1,115.83,229a3.685,3.685,0,0,1,1.6-4.487c.962-.962,1.6-2.244.962-3.526l-17.628-55.128,3.526-.962,3.205,9.936h0l12.179,37.82a9.575,9.575,0,0,0,9.295,7.692h0a13.63,13.63,0,0,0,3.526-.641l24.038-7.692c5.128-1.282,8.013-6.731,6.731-11.859,0-.641-.321-.962-.641-1.6l-12.179-37.82h0l-3.205-9.936,3.526-1.282,17.628,55.128a3.079,3.079,0,0,0,2.885,2.244C173.2,206.88,174.8,207.842,175.124,209.444Zm4.487-27.243a3.451,3.451,0,0,1-2.564,3.205L170,187.97l-9.936-31.41,7.051-2.244a4.447,4.447,0,0,1,2.885,0,8.087,8.087,0,0,1,3.205,4.808l6.09,18.91A18.277,18.277,0,0,1,179.611,182.2Z" transform="translate(0 -98.869)" fill="#011626"/>
        <path id="Path_23" data-name="Path 23" d="M225.919,89.246a3.028,3.028,0,0,0,3.205-3.205V61.362a3.205,3.205,0,1,0-6.41,0V86.041A3.212,3.212,0,0,0,225.919,89.246Z" transform="translate(-133.487 -58.157)" fill="#011626"/>
        <path id="Path_24" data-name="Path 24" d="M251.62,95.909a2.829,2.829,0,0,0,4.167-1.282l12.82-24.679a3.18,3.18,0,0,0-1.6-4.167,2.967,2.967,0,0,0-3.846,1.282l-12.82,24.679A3.636,3.636,0,0,0,251.62,95.909Z" transform="translate(-149.893 -62.576)" fill="#011626"/>
        <path id="Path_25" data-name="Path 25" d="M176.279,94.673a3.157,3.157,0,0,0,5.769-2.564.314.314,0,0,0-.32-.321l-12.82-24.679a3.152,3.152,0,0,0-4.487-.962,3.2,3.2,0,0,0-1.282,3.846Z" transform="translate(-97.628 -62.622)" fill="#011626"/>
      </g>
    </g>
  </g>
</svg>
